# xmcd
#
# Track frame offsets: 
#        150
#        23350
#        47503
#        70415
#        90853
#        113793
#        131805
#        144395
#        165298
#        190648
#        216128
#        245388
#
# Disc length: 3591 seconds
#
# Revision: 5
# Processed by: cddbd v1.5.2PL0 Copyright (c) Steve Scherf et al.
# Submitted via: ExactAudioCopy v1.0b3
#
DISCID=920e050c
DTITLE=Vesta - Special
DYEAR=1991
DGENRE=Soul
TTITLE0=Special
TTITLE1=I Don't Wanna Cry Anymore
TTITLE2=Person To Person
TTITLE3=Can't Get Enough Of Your Love
TTITLE4=Where Does The Love Go?
TTITLE5=Thank You For The Chance
TTITLE6=The Rib Joint
TTITLE7=TLC
TTITLE8=Do Ya
TTITLE9=Don't Trip
TTITLE10=Compassion
TTITLE11=I Promise Love
EXTD=
EXTT0=
EXTT1=
EXTT2=
EXTT3=
EXTT4=
EXTT5=
EXTT6=
EXTT7=
EXTT8=
EXTT9=
EXTT10=
EXTT11=
PLAYORDER=
